<svg xmlns="http://www.w3.org/2000/svg" viewBox="0 0 485.37 245.5"><defs><style>.cls-1{fill:#d83130;}</style></defs><g id="Laag_2" data-name="Laag 2"><g id="Laag_1-2" data-name="Laag 1"><path class="cls-1" d="M485.16,103.54c-5.13,13.22-14.81,13.27-14.81,13.27-8.46,7.5-21.92-2.42-21.92-2.42l-6-5.28-9.77,2-1.93-2.54,2.55-1.29,3.62,1.25,0-2.76-8.74-4.66-1.29-2.3-5.34-3.59L420,91l-9.59-4.84-3.89-1.46-3.39,1.54c4.47.78,3.28,5.92,3.28,5.92l-.33.19-29-28.39.27-.21-.9-.41-2.71-2.64-1.43.1-.4-.3L369.79,58l-3.48-1.75L361.13,50l.15-2.08-1.86-1.76-.67-2.26-7.07-6.61-4.27-6L345.12,26l-1.46-3.91-2.55-2.93.33-2.24-7.71-6.23-5.15-4-3.22-1.45L321,4.23l-6.3-1.61c-1.2.87-4.52,0-4.52,0L301,0l5.61,3.81,2.55,2.93,11.31.81c1.37,2.05,8.43,9.67,8.43,9.67L331.12,27l-2.91,3.47a10.61,10.61,0,0,0,1.75,2c.54.3-2.72,4.68-2.72,4.68l2.36,3a15.62,15.62,0,0,1-3.28,11.49L326,53.82l2,3.31-3,6,1.14,1.63-1.88,1.79-3.33,11,.77,8.23,2.47,2.83,2.21,1.32-.72-4.69C322.26,80.46,331,62.3,331,62.3l4.49-11.68L335.4,59l-.61,2.27-.46.25.28.44-.94,3.47,3.4.38.64,1,3.22,2,.94,1.57.82.07.19.7.76.68.17.63h.41l.5.34.52.26.46.19.32.58.21.59.58.49h.32l.2.25v.43l.18,1.19.4-.28v-.65l.29.17.59.57.55.76.43.32v.48l.61.28.88.43.35.29v.51l.58.25.49.2.38.2.67.4.2.57.58.68.38.17.41.37v.34l.58.4.46.31.77.75,1,.46v.55l1.43.78v1l1,1.13,1,.32,1.21.87,1.07,1.14,1.43.82.29,1.18,1.35.91.89.87.88.91,1,1.14,1.76,1.41.8.54.93.82.87.39,4.28,1.87,4.73,1.57.94-.45,3.06,1.19.58-.49,1.08.19.88-.15,1.48.58-.24.62-1.09,0-.2.51-.87-.16-1.91-.2-4.92-.75-.46,1.17-3.95-2.46-.41,1-3.87-1.87h-.89l0,0h-4.12l-4.56-.58-7.54-.63-2.45,1.26h-6.05l-6.14-.63-12.71-.63-10,1.26h-1.16l.13,0-.84-.47-1.18-.51-1.6,1h-1.26l-2.69,0-3.53-.44-4.12.39-1.84,0-1.11-.78-1.27.51-.09,0-1.85-.58h0l-.38-1.23h-1.8L294,99.5l-1.08-.9-.37-1.46-1.8-.72-.47-1.3L288,93.35l-.57-.87-1.64-1-.29-1-1.32-1-.49-.16v-.67l-.91-.72v-.34l-.94-.32-.27-.4-.34-.53-.3-.42-1-.33h0l-.64-2.57-7-5-4.57-5.75-1.65-.47-1-1V69.35l-2.05-.61-6.27-6.26L256.47,61,255.05,59l-6.74-4.66-.39-.3-1.06-.82-.22-.17V50.13H242l-.2-.09c-1-.51-1.93-1-2.93-1.39l0,0-2-1.46-4.6-.62-1.3-.93-2.08-.77.55,1.18h-.1a39,39,0,0,0-5.43-.4H220l-.06-.77,1.2-.74h-3.06v1.51H207.76a17.73,17.73,0,0,1-3-1.51l-3.71,1.51H185.54l-5.14-.8-3.61,1.25-4.92-.45-3.49-.8-3.06-1.26-1.79,2.06h-5.11l-2.33-1.29-5,1.29h-1l-.8-2L150,38.7l-5.33-.81h-7.37l-8-3.13-5.5-4.15-7.52.38-7.74-.93-2.11.46,4.17,1.29,1,1.16,2.16-.4,3.09,2.48,2.5.45,4.17,1.58L125.3,39l1,2.72,1.25,3.12,2.94,2.54,3.24,3.33.52,1.88-1,1L133,53l-2.7-2.43-3.45-1.93-2.1-2.38-1.55-1-2.48-6.64-3.22,1.49-3.57,2-2.72.39-2.8.62-6.25.6L99.34,44,108,41.62l-5.85-.77-6.56-3-5.19-3-2.19-1.63-2.94-1.13-2.61.14-.83,3.65,4.4,4.67L87.67,42l.06,2.07,3.18.66L90.3,46.3l.8,1.22,6.08,1,6.91.78,4.54.6,5.49,1.83,3,.57,1.54,3.83.93,1.56,2.22,1.69-1,1.44,1.38,3.74-1,1-2.33,0-2.44,4.8h-4.09L110,76.85l-1.87,1.87-3,3H102.2L98,84.65l-1.42,5.56h0l-6.09,1.71-3,7.38-.95,1-2.66,1.94-3.19.64-5.31,7.23-4.47.43L66,108.15l-3.19-.85-.21,2.76,4.89,4.25,1.27,3.19-4.89-3-4.25-3.19-.43-4.26-2.34-7.23-2.55-1.06c-1.06,3.61-6.8,3.19-6.8,3.19l-4.9,1.91h-5.1l.43-5.1H35.61l-.43,5.32L25,105.59l-3.61,1.92L8.6,114.74C-2,123.25.2,132.39.2,132.39c5.21-13.18,14.88-13.18,14.88-13.18,8.51-7.45,21.91,2.55,21.91,2.55l5.95,5.31,9.79-1.91,1.91,2.55L52.09,129l-3.62-1.28v2.77l8.72,4.71,1.28,2.31,5.32,3.61,1.48,4.25,9.58,4.9,3.87,1.49,3.4-1.53c-4.46-.81-3.24-5.93-3.24-5.93l13.28-7.53L93.38,138,91,139l-5.56,5.31h4l2.27-1.77h6.15l35.31,35.28.11,3.87v4.79l-.84,3,.8,3.59-1.41.64,1.54,3.36-.45,2.72,1.32,2.87-3.16,6.11a4.7,4.7,0,0,0,5.21-2.39l2.11-4.68-.63-1.39,1-2-.36-4.86-.44-2.07,1.39.79,1,5.42-.45,2L141,201.7l-2.71,4.12.68.39-3.45,5.49-.3,4.2L132.76,223l-3.18,2.07-4.4,7.31-1.5,3.48-3.55,2.88-5.49,2.53-4.6-.84s-9.35,1.35-12-2.08l-2.65-5.77L95.6,237l-.11,1.25,1.2-.55.26,1.5.36,3,1.4.43,11.66,2.15,8.87.71,3.69-1.7,5.18-3,3.23-2.4,4.13-5.31,5.83-5.63,1.47-3.08,5.29-5.38,4.72-3.73,2.21-2.72,4.55.09.62-4.65-3.41-7.41.57-4.05-2.93-3.36-.79-4.73-2.31-5-.43-10.72,7,5.5L167.6,182l10.23-.34,11.92,1.07,13.94-2,11.72-5.39,3.19-4.87,4.57-2.34-4.91,1.62-6.09,4.87L203.79,177l-13.16.12-19.91-4,3.86,5.6-3.47-.84-2.47-1.74-2.19-3.93L164,168.49l-4-3.72-5.55-2.31-3.06-2.19-.85-2.12-.26.11.29-.9-24.33-26.18.6.65L123,127.6l-2.52-1-.84-1-1.26.63-.66-1.32-1.11.59-.86-1.69-1.35.52-1.1-2.84L111.68,120l-1.05-.85,1.12-.83,1.3.51,1.31.78,2,3.26,1.34-.69,2.18,1.36,1.12.63,1.13-.65,3.67,5,1.72,1.15h1.73l-.14,2.05,3.08.21,2.22-1.87,2.34.15,9,.61,3.84.26,6.19.42,3.38.22,1.21-1.2,1.13,1.36,1.88.13,1.15-.43,1.6.11,1.65-.67,5.53.37.57,1.32,1.69.12,2.67.79,2,.81,1.88.13,1.3-1.2,4.5.3,5.25.36,1.94.63,1.17.86,1.12.08,2.44.16,1.27-.7,3.67.25.47.24.26.71,1,.29a.93.93,0,0,1,.57.42l.26.39a.92.92,0,0,0,.48.39l1.87.73-.2.69,1.88.79a.94.94,0,0,1,.45.36l.57.85a.77.77,0,0,0,.17.19l3.13,2.72,1.28,1.17-.31,1.06.23.81,2.44.69.22.1,1.68,1,.61.69,2.25.95a1,1,0,0,1,.36.26l.55.6-.27,1,1.92,1.56.08.06,1.8,1.18,1,.62-.33,1.17,1,.62-.84,1.29a1.06,1.06,0,0,0-.15.67l.05.4a1,1,0,0,0,.72.85,1,1,0,0,0,.94-.21l1-.85a1.07,1.07,0,0,1,.36-.2l.51-.17a1,1,0,0,1,.81.09l.72.41a1,1,0,0,1,.51.82l0,1a1,1,0,0,0,.46.79l1.32.86a1,1,0,0,1,.4.5l.71,2a1,1,0,0,0,.25.38l1.41,1.35.09.1,1,1.25a1,1,0,0,1,.2.4l.35,1.54a1.11,1.11,0,0,0,.23.46l1.21,1.32,0,0,3.56,3.44,0,.05,2.41,2.07.13.09,1.74,1.06.17-.58-.67-.66.47-1.66c.05-.15.22-.62.38-1.11a38.72,38.72,0,0,0,26.47,10.46h7.93l1.06.28,2.19,1.89,2.4.69,1.65-1,3.12,1,2.45,1.21,2.19,1.89,3.4,2.43,2.24-2.61,1.25.29,2.22-.07,1.7-1.2,4.43.85,1.81,1.56,3.87-1,3.54,2.07,2.55.32,1.93.08.78-.91,3.32.58,8.63,2.3h2.19l3.27.25-.87-2.13,1-.33,1.53.11,1.47-1,2.14-.62,1.26-1,5,2.51-3.76-2.14,10.56,3.23,5.75,6.63,11.2,4.74,3.73,5.31,3.16,9.67,2.12.56v1.12h-2l.32,3.63-3.18,3.42-.95.77,2.64.84,3.71-3.77,2-4.68,1.17-.63v-7.9l1.8-.42v-.77l-1.85.42-.32-1.89-1.27-.06-.21-1.47,1.48-.56,3.18-.28L397,206.2l-.53-.91-3.09-.56-2.57-1.61.27-1.47-2.61.26-.26-2.43-7.1-3.6-6.43-3.8L371.44,190l-4.73-2.56-1.51-2.87,5,1.5,2.45,1.87,5.49,2.25,5.86,3.43,2,1.43h4.73l2.19-1.16H402v-5.14l-4.19-1.56-3.36-1.31-2.18-2.09h-4.74l-5.15-1.95-6.32-.92-4.28-2.06v-.68l.6-2.16,2.64-1.32,2.28-1.32h2.77l1-1.09h3.12l.48-5.88,2.41-1.81v-2.4l1.44-1.56,2.28-3.24.84-1.57h1.68l.42-1.42h1.64v-1.64l1.12-1.47,1.56-.52-.43-1.55h2.24l.78-1.73,2.24-.51.52-1.73v-1.9l1.72-.95.52-1.72,2.5-.69,1.56-2.25,2-1.81,1.12-1.9h1.56v-1.64l1.38-1h1.47l.77-1.64,2.85-1.13h.43l1.45.38.2-2.76L421,124.65l1.88-1.88,2.93,2.17.45,4.25,2.38,7.22,2.56,1.05c1-3.62,6.79-3.23,6.79-3.23l4.88-1.94,5.1,0-.39,5.1H450l.39-5.32,10.2-1.55,3.6-1.93,12.72-7.31C487.45,112.67,485.16,103.54,485.16,103.54ZM269.06,154l-.37-.38.6.26Zm-98.61-46.39,2.26,2.29,4.64,1.72-.76.92-2.59-.78-1.85-.63L170,109.76l-1.5-.77-.47-.53-.22-1-.42-.09Zm206.67,39.29,1.4-2,1.33.32.47-1.43,1.7-2.06,1.81-1.34,1.29-2.53,3.77-4.29.27.09-.52,4.71-1.59.8-2,3.1-1.85,3.14-1.86.2-3.22,3.84-3,5.21-2.79,3-4.16,2.72-2.68,2.7-1.91.84L363,165.6l-1.05-.48.48-1.44,1.12-1.19.88-.42,1.43-2.31,1.09-.34.54-1.43,2.12-.49,1-3.3,1.61-.87,1.13-1.72,1.25-.43,1.21-3.44ZM244.73,74.63l-.37-1-1.29-1.29.7-.69L242,69.82l-.61-1.36-.1-1.27-.19-1.47,1,1,1.06,1.06,2,2-.29.89,2,2,1.32,1.1.59,1.23.64,1.18.3,1.52L251,79l1.29,1.28-.17.73ZM124.81,101.7l7.51-4.44s4.39-2.79,5.38-5V88.77h0l4.59-1.93L144.51,82h0l4.75-2.83,2-2.19,1.52-3.28.36-2.82,6.58,2.6-.47.22h27.8l-.07,0,37,0H203.42L214,77.13,231.74,77l7.9,14.27,8.68,2.36,18.51,18.57-4.42,3.5h7.91l2.73,2.73c.7.68,1.42,1.32,2.17,1.95l-1.57,3.05h5.71a39.25,39.25,0,0,0,15.37,5.82h0l16.46,5.3,13.92-1.76,6.39-3.09,13.7,3.09,9.28-3.09h9.07l6.39,2.65,6.4-2.65-16.68,16.69-.05,0L357,148.14l-2,.14-1.39,2.63-2.31-1.22-1.05,2-2.15-1.13-1.65-.87-1.3,2.47-5.4,2.67-2.72-.45-4.76,1.44-4.6.73-.62,1.18h-12.6L311.76,156,310,155l-2.21-1.31-2.57-1.21-1.32-2.12-3.1-1.63L299.35,150l-2.51-1.32-2.54,3.08-4.87,1.43-2.55.51h-3.81l-1.91-1-.33.63-3,.25-.15,0-1-1.8-2.7-1.26-3.75-.89L270,148.1l-1.52.12-2.13-1.76-1.71-2.23L262,143.4l-1.4-2.11-.93-2-.19-2.36-3,.83-3.16-1.23-1.79-1.34-1.33-1.37-.21-2.51-2.13.17-1.47-1.21-1.93-1.18-.25-3.1L244,122.6l-2-2.21-1.11,3.35-.48,1.58-1.12-1.12-.57-.88-1.74-2.53-2.54-3.06-2.3-3.82-1.82-1.78L228.64,109l-.13-1.63-1.69,4.51q-.87-.78-1.77-1.5l.95.05L225,108.28l-1.78-.91h-2.42l-2.22-2.86H215l-.13,0c-1.07-.43-2.17-.81-3.29-1.14l-.07,0-3-1.6-2.67-.72h-10.7l-3.92.67-2.5-.67H182l-3.38.67-2.32-.67h-4.46l-.15.72h-8.51l.21.39,2,.39,3.93,3.91-3.3.21-.46-.55-.68-1.26-1.33.29-1.69-1-2.35-2,.7-.38h-.85l-.06-1.44h-6.48l-1.67,1.39H144l-6.59-1.39-9.81,1.44ZM278,166.94l-1.89-1.9-.92-1.66-.06-.18,4.15.4,0,.06.29,1.52,1.36,1.37,1.29,1.28L282,169l1.66,1.67,1.56,2.08-.7.7-.56-1.1-2-2-1.74-1.75,0-.93-.68-.68Zm141.45-38.77.22.06-2.59.34,1-1Z"/><polygon class="cls-1" points="203.42 73.65 187.05 73.65 194.14 77.13 203.42 73.65"/></g></g></svg>